# Blender 4.3.2
# www.blender.org
mtllib swarmer.mtl
o Cube
v 0.425000 0.633927 -1.557776
v 0.425000 -0.636358 -1.534652
v 0.425000 0.465000 -0.500000
v 0.425000 -0.465000 -0.500000
v -0.425000 0.633927 -1.557776
v -0.425000 -0.636358 -1.534652
v -0.425000 0.465000 -0.500000
v -0.425000 -0.465000 -0.500000
v 0.425000 0.307878 -1.488472
v 0.425000 -0.310309 -1.465348
v -0.425000 -0.215000 -0.500000
v -0.425000 0.215000 -0.500000
v 0.425000 0.215000 -0.500000
v 0.425000 -0.215000 -0.500000
v -0.425000 0.307878 -1.488472
v -0.425000 -0.310309 -1.465348
v 0.382500 -0.140667 -1.400000
v -0.382500 -0.140667 -1.400000
v 0.425000 -0.306667 -1.300000
v -0.425000 -0.306667 -1.300000
v 0.382500 -0.139667 -1.200000
v -0.382500 -0.139667 -1.200000
v 0.425000 -0.306667 -1.100000
v -0.425000 -0.306667 -1.100000
v 0.382500 -0.139667 -1.000000
v -0.382500 -0.139667 -1.000000
v 0.425000 -0.306667 -0.899000
v -0.425000 -0.306667 -0.899000
v 0.382500 0.144528 -1.453751
v -0.382500 0.144528 -1.453751
v 0.425000 0.306667 -1.400000
v -0.425000 0.306667 -1.400000
v 0.382500 0.139667 -1.300000
v -0.382500 0.139667 -1.300000
v 0.425000 0.306667 -1.200000
v -0.425000 0.306667 -1.200000
v 0.382500 0.139667 -1.100000
v -0.382500 0.139667 -1.100000
v 0.425000 0.306727 -1.000000
v -0.425000 0.306727 -1.000000
v 0.141667 -0.636358 -1.534652
v -0.141667 -0.636358 -1.534652
v -0.141667 -0.565000 -0.500000
v 0.141667 -0.565000 -0.500000
v -0.141667 -0.310309 -1.490348
v 0.141667 -0.310309 -1.490348
v 0.141667 -0.322500 -0.500000
v -0.141667 -0.322500 -0.500000
v -0.141667 -0.211000 -1.400000
v 0.141667 -0.211000 -1.400000
v -0.141667 -0.460000 -1.300000
v 0.141667 -0.460000 -1.300000
v -0.141667 -0.209500 -1.200000
v 0.141667 -0.209500 -1.200000
v -0.141667 -0.460000 -1.100000
v 0.141667 -0.460000 -1.100000
v -0.141667 -0.209500 -1.000000
v 0.141667 -0.209500 -1.000000
v -0.141667 -0.460000 -0.899000
v 0.141667 -0.460000 -0.899000
v 0.141667 0.565000 -0.500000
v -0.141667 0.565000 -0.500000
v -0.141667 0.633927 -1.557776
v 0.141667 0.633927 -1.557776
v -0.141667 0.307878 -1.513472
v 0.141667 0.307878 -1.513472
v 0.141667 0.322500 -0.500000
v -0.141667 0.322500 -0.500000
v -0.141667 0.216791 -1.453751
v 0.141667 0.216791 -1.453751
v -0.141667 0.460000 -1.400000
v 0.141667 0.460000 -1.400000
v -0.141667 0.209500 -1.300000
v 0.141667 0.209500 -1.300000
v -0.141667 0.460000 -1.200000
v 0.141667 0.460000 -1.200000
v -0.141667 0.209500 -1.100000
v 0.141667 0.209500 -1.100000
v -0.141667 0.460090 -1.000000
v 0.141667 0.460090 -1.000000
v -0.467500 -0.636358 -1.534652
v -0.467500 -0.465000 -0.500000
v 0.467500 -0.310309 -1.465348
v 0.467500 -0.636358 -1.534652
v -0.467500 0.215000 -0.500000
v -0.467500 0.465000 -0.500000
v 0.467500 -0.215000 -0.500000
v 0.467500 -0.465000 -0.500000
v -0.467500 -0.310309 -1.465348
v 0.467500 0.633927 -1.557776
v 0.467500 0.465000 -0.500000
v -0.467500 0.633927 -1.557776
v 0.467500 0.307878 -1.488472
v -0.467500 -0.215000 -0.500000
v 0.467500 0.215000 -0.500000
v -0.467500 0.307878 -1.488472
v 0.467500 -0.306667 -1.300000
v 0.467500 -0.306667 -1.100000
v 0.467500 0.306667 -1.400000
v 0.467500 0.306667 -1.200000
v 0.467500 0.306727 -1.000000
v -0.467500 0.306667 -1.400000
v -0.467500 0.306667 -1.200000
v 0.467500 -0.306667 -0.899000
v -0.467500 -0.306667 -0.899000
v -0.467500 -0.306667 -1.100000
v -0.467500 0.306727 -1.000000
v -0.467500 -0.306667 -1.300000
vn -0.1727 0.9788 0.1100
vn -0.0000 -0.0000 1.0000
vn 0.1726 -0.9783 0.1147
vn -0.0000 -0.9836 -0.1804
vn 0.0434 -0.1715 -0.9842
vn 0.0434 0.1715 -0.9842
vn -0.0000 0.2079 -0.9781
vn -0.0000 0.9746 -0.2239
vn 0.0255 0.4978 -0.8669
vn 0.1761 0.4127 0.8937
vn 0.1749 0.4108 -0.8948
vn 0.1749 0.4108 0.8948
vn 0.1763 0.4141 0.8930
vn -0.0032 -0.3475 -0.9377
vn -0.1053 -0.2446 0.9639
vn -0.1749 -0.4108 -0.8948
vn -0.1749 -0.4108 0.8948
vn -0.1749 -0.4107 0.8948
vn -0.9676 -0.2525 -0.0035
vn -0.9691 -0.2466 -0.0000
vn -0.9691 -0.2466 0.0001
vn -0.9695 0.2450 -0.0054
vn -0.9691 0.2466 -0.0000
vn 0.9691 -0.2466 -0.0000
vn 0.9676 -0.2525 -0.0035
vn 0.9691 -0.2466 0.0001
vn 0.9691 0.2466 -0.0000
vn 0.9695 0.2450 -0.0054
vn 0.4046 0.8790 -0.2524
vn 0.4094 -0.8893 -0.2039
vn -0.4046 0.8790 -0.2524
vn -0.0000 0.9454 -0.3258
vn -0.1763 0.4141 0.8930
vn -0.0000 0.3739 0.9275
vn -0.1749 0.4108 -0.8948
vn -0.0000 0.3708 -0.9287
vn -0.1749 0.4108 0.8948
vn -0.0000 0.3708 0.9287
vn -0.1761 0.4127 0.8937
vn -0.0000 0.3727 0.9280
vn -0.0255 0.4978 -0.8669
vn -0.0000 0.6729 -0.7397
vn -0.0434 0.1715 -0.9842
vn -0.0000 0.1346 -0.9909
vn -0.1726 -0.9783 0.1147
vn -0.0000 -0.9976 0.0688
vn -0.4094 -0.8893 -0.2039
vn -0.0000 -0.9642 -0.2653
vn 0.1749 -0.4107 0.8948
vn -0.0000 -0.3706 0.9288
vn 0.1749 -0.4108 -0.8948
vn -0.0000 -0.3708 -0.9287
vn 0.1749 -0.4108 0.8948
vn -0.0000 -0.3708 0.9287
vn 0.1053 -0.2446 0.9639
vn -0.0000 -0.2158 0.9764
vn 0.0032 -0.3475 -0.9377
vn -0.0000 -0.5483 -0.8363
vn -0.0434 -0.1715 -0.9842
vn -0.0000 -0.1346 -0.9909
vn 0.1727 0.9788 0.1100
vn -0.0000 0.9979 0.0650
vn -1.0000 -0.0000 -0.0000
vn 1.0000 -0.0000 -0.0000
vn -0.0000 -1.0000 0.0003
vn -0.0000 1.0000 -0.0000
vn -0.0000 -0.9999 -0.0137
vn -0.0000 -1.0000 -0.0000
vn -0.0000 0.9875 0.1577
vn -0.0000 -0.9866 0.1634
vn -0.0000 0.9998 -0.0220
vn -0.0000 -0.2079 -0.9781
vt 0.791667 0.500000
vt 0.875000 0.500000
vt 0.875000 0.750000
vt 0.791667 0.750000
vt 0.541667 0.916667
vt 0.625000 0.916667
vt 0.625000 1.000000
vt 0.541667 1.000000
vt 0.291667 0.500000
vt 0.375000 0.500000
vt 0.375000 0.750000
vt 0.291667 0.750000
vt 0.541667 0.250000
vt 0.541667 0.000000
vt 0.541667 0.416667
vt 0.625000 0.416667
vt 0.625000 0.500000
vt 0.541667 0.500000
vt 0.375000 0.416667
vt 0.458333 0.416667
vt 0.458333 0.500000
vt 0.458333 0.650250
vt 0.458333 0.750000
vt 0.375000 0.916667
vt 0.458333 0.916667
vt 0.458333 1.000000
vt 0.375000 1.000000
vt 0.458333 0.333333
vt 0.458333 0.250000
vt 0.458333 0.333333
vt 0.541667 0.416667
vt 0.541667 0.225000
vt 0.541667 0.175000
vt 0.458333 0.200000
vt 0.458333 0.150000
vt 0.458333 0.099750
vt 0.541667 0.575000
vt 0.458333 0.600000
vt 0.458333 0.250000
vt 0.458333 0.383417
vt 0.458333 0.000000
vt 0.541667 0.333333
vt 0.541667 0.250000
vt 0.458333 0.516833
vt 0.458333 0.500000
vt 0.458333 0.416667
vt 0.458333 0.416667
vt 0.458333 0.833333
vt 0.375000 0.833333
vt 0.375000 0.250000
vt 0.375000 0.333333
vt 0.125000 0.500000
vt 0.208333 0.500000
vt 0.208333 0.750000
vt 0.125000 0.750000
vt 0.541667 0.750000
vt 0.541667 0.500000
vt 0.625000 0.250000
vt 0.625000 0.333333
vt 0.625000 0.750000
vt 0.625000 0.833333
vt 0.541667 0.833333
vt 0.708333 0.500000
vt 0.708333 0.750000
vt 0.625000 0.000000
vt 0.541667 0.125000
vt 0.541667 0.625000
vt 0.541667 0.525000
vt 0.458333 0.550000
vt 0.375000 0.000000
s 0
usemtl Material
f 63/1/1 5/2/1 7/3/1 62/4/1
f 68/5/2 62/6/2 7/7/2 12/8/2
f 12/8/2 7/7/2 86/7/2 85/8/2
f 41/9/3 2/10/3 4/11/3 44/12/3
f 40/13/4 12/14/4 85/14/4 107/13/4
f 66/15/5 64/16/5 1/17/5 9/18/5
f 41/19/6 46/20/6 10/21/6 2/10/6
f 2/10/7 10/21/7 83/21/7 84/10/7
f 27/22/8 14/23/8 87/23/8 104/22/8
f 43/24/2 48/25/2 11/26/2 8/27/2
f 45/28/9 16/29/9 18/29/9 49/30/9
f 49/30/10 18/29/10 20/29/10 51/30/10
f 51/30/11 20/29/11 22/29/11 53/30/11
f 53/30/12 22/29/12 24/29/12 55/30/12
f 55/30/11 24/29/11 26/29/11 57/30/11
f 57/30/13 26/29/13 28/29/13 59/30/13
f 66/15/14 9/18/14 29/18/14 70/15/14
f 70/15/15 29/18/15 31/18/15 72/15/15
f 72/15/16 31/18/16 33/18/16 74/15/16
f 74/15/17 33/18/17 35/18/17 76/15/17
f 76/15/16 35/18/16 37/18/16 78/15/16
f 78/15/18 37/18/18 39/18/18 80/31/18
f 30/13/19 32/13/19 15/13/19
f 34/13/20 36/13/20 32/32/20
f 38/13/21 40/13/21 36/33/21
f 16/29/22 20/34/22 18/29/22
f 20/34/23 24/35/23 22/29/23
f 24/35/23 28/36/23 26/29/23
f 35/18/24 33/18/24 31/18/24
f 29/18/25 9/18/25 31/18/25
f 37/18/26 35/37/26 39/18/26
f 19/21/27 21/21/27 23/21/27
f 17/21/28 19/21/28 10/21/28
f 25/21/27 27/21/27 23/38/27
f 48/39/29 59/40/29 28/29/29 11/41/29
f 79/42/30 68/43/30 12/14/30 40/13/30
f 14/23/31 27/22/31 60/44/31 47/45/31
f 47/45/32 60/44/32 59/40/32 48/39/32
f 25/21/33 58/46/33 60/46/33 27/21/33
f 58/46/34 57/30/34 59/30/34 60/46/34
f 23/21/35 56/46/35 58/46/35 25/21/35
f 56/46/36 55/30/36 57/30/36 58/46/36
f 21/21/37 54/46/37 56/46/37 23/21/37
f 54/46/38 53/30/38 55/30/38 56/46/38
f 19/21/35 52/46/35 54/46/35 21/21/35
f 52/46/36 51/30/36 53/30/36 54/46/36
f 17/21/39 50/47/39 52/46/39 19/21/39
f 50/47/40 49/30/40 51/30/40 52/46/40
f 10/21/41 46/20/41 50/47/41 17/21/41
f 46/20/42 45/28/42 49/30/42 50/47/42
f 4/11/2 14/23/2 47/48/2 44/49/2
f 44/49/2 47/48/2 48/25/2 43/24/2
f 6/50/43 16/29/43 45/28/43 42/51/43
f 42/51/44 45/28/44 46/20/44 41/19/44
f 6/52/45 42/53/45 43/54/45 8/55/45
f 42/53/46 41/9/46 44/12/46 43/54/46
f 39/18/47 13/56/47 67/57/47 80/31/47
f 80/31/48 67/57/48 68/43/48 79/42/48
f 38/13/49 77/42/49 79/42/49 40/13/49
f 77/42/50 78/15/50 80/31/50 79/42/50
f 36/13/51 75/42/51 77/42/51 38/13/51
f 75/42/52 76/15/52 78/15/52 77/42/52
f 34/13/53 73/42/53 75/42/53 36/13/53
f 73/42/54 74/15/54 76/15/54 75/42/54
f 32/13/51 71/42/51 73/42/51 34/13/51
f 71/42/52 72/15/52 74/15/52 73/42/52
f 30/13/55 69/42/55 71/42/55 32/13/55
f 69/42/56 70/15/56 72/15/56 71/42/56
f 15/13/57 65/42/57 69/42/57 30/13/57
f 65/42/58 66/15/58 70/15/58 69/42/58
f 15/13/59 5/58/59 63/59/59 65/42/59
f 65/42/60 63/59/60 64/16/60 66/15/60
f 13/56/2 3/60/2 61/61/2 67/62/2
f 67/62/2 61/61/2 62/6/2 68/5/2
f 1/17/61 64/63/61 61/64/61 3/60/61
f 64/63/62 63/1/62 62/4/62 61/64/62
f 85/14/63 86/65/63 92/58/63 96/13/63 102/32/63 103/33/63 107/66/63
f 93/18/64 90/17/64 91/60/64 95/56/64 101/67/64 100/37/64 99/68/64
f 84/10/64 83/21/64 97/69/64 98/38/64 104/22/64 87/23/64 88/11/64
f 82/70/63 94/41/63 105/36/63 106/35/63 108/34/63 89/29/63 81/50/63
f 39/18/65 35/37/65 100/37/65 101/18/65
f 14/23/2 4/11/2 88/11/2 87/23/2
f 19/21/66 23/21/66 98/21/66 97/21/66
f 16/29/7 6/50/7 81/50/7 89/29/7
f 15/13/67 32/13/67 102/13/67 96/13/67
f 35/18/68 31/18/68 99/18/68 100/18/68
f 31/18/67 9/18/67 93/18/67 99/18/67
f 13/56/4 39/18/4 101/18/4 95/56/4
f 1/17/69 3/60/69 91/60/69 90/17/69
f 32/32/68 36/13/68 103/13/68 102/32/68
f 23/38/66 27/21/66 104/21/66 98/38/66
f 7/3/69 5/2/69 92/2/69 86/3/69
f 28/36/66 24/35/66 106/35/66 105/36/66
f 36/33/65 40/13/65 107/13/65 103/33/65
f 4/11/70 2/10/70 84/10/70 88/11/70
f 20/34/71 16/29/71 89/29/71 108/34/71
f 9/18/72 1/17/72 90/17/72 93/18/72
f 10/21/71 19/21/71 97/21/71 83/21/71
f 8/27/2 11/26/2 94/26/2 82/27/2
f 24/35/66 20/34/66 108/34/66 106/35/66
f 6/52/70 8/55/70 82/55/70 81/52/70
f 3/60/2 13/56/2 95/56/2 91/60/2
f 11/41/8 28/29/8 105/29/8 94/41/8
f 5/58/72 15/13/72 96/13/72 92/58/72
o Sphere
v 0.000000 0.923879 0.482683
v 0.000000 0.382683 -0.923880
v 0.146447 0.353553 1.523880
v 0.270598 0.270598 1.523880
v 0.500000 0.500000 -0.707107
v 0.272448 0.146447 1.523880
v 0.503417 0.270598 1.007107
v 0.382683 0.000000 -0.923880
v 0.711940 -0.382684 -0.000000
v 0.653281 -0.653282 0.482683
v 0.707107 -0.707107 -0.000000
v 0.500000 -0.500000 -0.707107
v 0.146447 -0.353553 1.523880
v 0.270598 -0.653282 1.007107
v 0.353553 -0.853554 0.482683
v 0.353553 -0.853554 -0.382684
v 0.000000 -0.707107 1.007107
v 0.000000 0.000000 -1.000000
v 0.000000 0.000000 2.000000
v -0.146447 -0.353553 1.523880
v -0.270598 -0.653281 1.007107
v -0.353554 -0.853553 0.482683
v -0.270598 -0.653281 -0.707107
v -0.146447 -0.353554 -0.923880
v -0.500000 -0.500000 1.007107
v -0.653282 -0.653281 -0.382684
v -0.500000 -0.500000 -0.707107
v -0.711940 0.000000 -0.000000
v -0.657746 0.000000 -0.382684
v -0.503417 0.000000 -0.707107
v -0.382683 0.000000 -0.923880
v -0.272448 0.146447 1.523880
v -0.657746 0.094844 0.482683
v 0.503467 0.055091 1.007337
v -0.684743 0.000000 0.442231
v -0.353553 0.853553 -0.382684
v -0.270598 0.270598 1.523880
v -0.500000 0.500000 -0.707107
v -0.270598 0.270598 -0.923880
v -0.503417 0.270598 1.007107
v -0.353553 0.146446 -0.923880
v -0.272448 0.000000 1.523880
v 0.271070 0.000000 0.462914
v 0.503467 0.126459 0.462914
v -0.657747 -0.353554 0.482683
v -0.711940 -0.382684 -0.000000
v -0.657747 -0.353554 -0.382684
v -0.503417 -0.270598 -0.707107
v -0.270598 -0.270598 1.523880
v -0.653281 -0.653282 0.482683
v -0.707107 -0.707107 -0.000000
v -0.382683 -0.923880 0.000000
v -0.353553 -0.853554 -0.382684
v 0.382684 -0.923880 0.000000
v 0.146447 -0.353554 -0.923880
v 0.653282 -0.653281 -0.382684
v 0.270598 -0.270598 -0.923880
v 0.272448 -0.146446 1.523880
v 0.657746 -0.353553 0.482683
v 0.657746 -0.353553 -0.382684
v 0.272448 0.000000 1.523880
v 0.711940 0.000000 -0.000000
v 0.657746 0.000000 -0.382684
v 0.503417 0.000000 -0.707107
v 0.270598 0.270598 -0.923880
v 0.353553 0.853553 0.482683
v 0.353553 0.853553 -0.382684
v 0.657746 0.094844 0.482683
v 0.684743 0.000000 0.442231
v 0.000000 -0.923879 0.482683
v 0.000000 -1.000000 -0.000000
v 0.000000 -0.923879 -0.382684
v 0.000000 -0.382683 -0.923880
v 0.270598 -0.270598 1.523880
v 0.503417 -0.270598 -0.707107
v 0.503417 0.270598 -0.707107
v 0.353553 0.146447 -0.923880
v 0.653281 0.653282 -0.382684
v 0.270598 0.653282 -0.707107
v 0.000000 0.382684 1.523880
v 0.000000 0.707107 1.007107
v 0.000000 1.000000 0.000000
v 0.000000 0.923880 -0.382683
v 0.000000 0.707107 -0.707107
v -0.146447 0.353553 1.523880
v -0.270598 0.653281 1.007107
v -0.353554 0.853553 0.482683
v -0.270598 0.653281 -0.707107
v -0.146447 0.353554 -0.923880
v -0.500000 0.500000 1.007107
v -0.707107 0.707107 -0.000000
v -0.653282 0.653281 -0.382684
v -0.503417 0.270598 -0.707107
v -0.503417 -0.270598 1.007107
v 0.000000 -0.382683 1.523880
v 0.000000 -0.707106 -0.707107
v -0.657746 -0.094844 0.482683
v 0.271070 0.000000 1.007337
v -0.270598 -0.270598 -0.923880
v -0.272448 -0.146447 1.523880
v -0.353553 -0.146446 -0.923880
v -0.657747 0.353554 0.482683
v -0.711940 0.382684 -0.000000
v -0.657747 0.353554 -0.382684
v -0.653281 0.653282 0.482683
v -0.382683 0.923880 0.000000
v 0.270598 0.653281 1.007107
v 0.382684 0.923880 0.000000
v 0.146447 0.353554 -0.923880
v 0.500000 0.500000 1.007107
v 0.653282 0.653281 0.482683
v 0.707107 0.707107 -0.000000
v 0.657746 0.353553 0.482683
v 0.711940 0.382683 -0.000000
v 0.657746 0.353553 -0.382684
v 0.503417 -0.270598 1.007107
v 0.353553 -0.146447 -0.923880
v 0.500000 -0.500000 1.007107
v 0.270598 -0.653281 -0.707107
v 0.657746 -0.094844 0.482683
v -0.271377 0.000000 0.462914
v -0.271377 0.000000 1.007337
v -0.502845 0.055091 1.007337
v -0.502845 0.126459 0.462914
v -0.504929 0.000000 0.346631
v -0.502845 -0.126459 0.462914
v -0.502845 -0.055091 1.007337
v 0.504595 0.000000 0.346525
v 0.503467 -0.055091 1.007337
v 0.503467 -0.126459 0.462914
vn 0.0388 0.1949 -0.9800
vn 0.1632 0.8203 -0.5481
vn 0.1928 0.9693 0.1529
vn 0.1661 0.8352 0.5243
vn 0.1098 0.5522 -0.8264
vn 0.1915 0.9626 -0.1915
vn 0.1808 0.9089 0.3757
vn 0.1532 0.7702 0.6191
vn 0.4731 0.7080 0.5243
vn 0.3128 0.4681 -0.8264
vn 0.5453 0.8161 -0.1915
vn 0.5149 0.7706 0.3757
vn 0.4363 0.6530 0.6191
vn 0.1104 0.1653 -0.9800
vn 0.4647 0.6954 -0.5481
vn 0.5490 0.8217 0.1529
vn 0.6722 0.1642 -0.7219
vn 0.9899 0.0147 -0.1413
vn 0.9586 0.0143 0.2844
vn 0.8662 0.0129 0.4996
vn 0.1653 0.1104 -0.9800
vn 0.9016 0.0134 -0.4323
vn 0.9117 0.0136 0.4107
vn 0.8679 -0.0000 0.4967
vn 0.9030 -0.0000 -0.4296
vn 0.9129 0.0004 0.4082
vn 0.8392 0.0586 -0.5406
vn 0.3450 0.6340 0.6922
vn -0.1834 -0.9747 -0.1278
vn 0.2307 0.9730 -0.0006
vn 0.8392 -0.0586 -0.5406
vn 0.9901 -0.0000 -0.1402
vn 0.3632 0.9297 -0.0609
vn 0.1949 -0.0388 -0.9800
vn 0.6722 -0.1642 -0.7219
vn 0.9899 -0.0147 -0.1413
vn 0.9586 -0.0143 0.2844
vn 0.8662 -0.0129 0.4996
vn 0.1653 -0.1104 -0.9800
vn 0.9016 -0.0134 -0.4323
vn 0.9935 -0.0148 0.1124
vn 0.9117 -0.0136 0.4107
vn 0.5453 -0.8161 -0.1915
vn 0.5149 -0.7706 0.3757
vn 0.4363 -0.6530 0.6191
vn 0.4647 -0.6954 -0.5481
vn 0.5490 -0.8217 0.1529
vn 0.4731 -0.7080 0.5243
vn 0.3128 -0.4681 -0.8264
vn 0.0388 -0.1949 -0.9800
vn 0.1632 -0.8203 -0.5481
vn 0.1928 -0.9693 0.1529
vn 0.1661 -0.8352 0.5243
vn 0.1098 -0.5522 -0.8264
vn 0.1915 -0.9626 -0.1915
vn 0.1808 -0.9089 0.3757
vn 0.1532 -0.7702 0.6191
vn -0.1928 -0.9693 0.1529
vn -0.1661 -0.8352 0.5243
vn -0.1098 -0.5522 -0.8264
vn -0.1915 -0.9626 -0.1915
vn -0.1808 -0.9089 0.3757
vn -0.1532 -0.7702 0.6191
vn -0.0388 -0.1949 -0.9800
vn -0.1632 -0.8203 -0.5481
vn -0.3128 -0.4681 -0.8264
vn -0.5453 -0.8161 -0.1915
vn -0.5149 -0.7706 0.3757
vn -0.4363 -0.6530 0.6191
vn -0.1104 -0.1653 -0.9800
vn -0.4647 -0.6954 -0.5481
vn -0.5490 -0.8217 0.1529
vn -0.4731 -0.7080 0.5243
vn -0.9586 -0.0143 0.2844
vn -0.8662 -0.0129 0.4996
vn -0.9016 -0.0134 -0.4323
vn -0.9117 -0.0136 0.4107
vn -0.6722 -0.1642 -0.7219
vn -0.9899 -0.0147 -0.1413
vn -0.1949 -0.0388 -0.9800
vn -0.9030 -0.0000 -0.4296
vn -0.9132 0.0012 0.4075
vn -0.8392 -0.0586 -0.5406
vn -0.9901 -0.0000 -0.1402
vn -0.3454 -0.6321 0.6936
vn -0.3454 0.6321 0.6936
vn -0.8392 0.0586 -0.5406
vn 0.3450 -0.6340 0.6922
vn -0.8679 -0.0000 0.4967
vn -0.1949 0.0388 -0.9800
vn -0.9939 0.0306 0.1056
vn -0.6722 0.1642 -0.7219
vn -0.9899 0.0147 -0.1413
vn -0.9586 0.0143 0.2844
vn -0.8662 0.0129 0.4996
vn -0.9016 0.0134 -0.4323
vn -0.9935 0.0148 0.1124
vn -0.9117 0.0136 0.4107
vn -0.4363 0.6530 0.6191
vn -0.1104 0.1653 -0.9800
vn -0.4647 0.6954 -0.5481
vn -0.5490 0.8217 0.1529
vn -0.4731 0.7080 0.5243
vn -0.3128 0.4681 -0.8264
vn -0.5453 0.8161 -0.1915
vn -0.5149 0.7706 0.3757
vn -0.1632 0.8203 -0.5481
vn -0.1928 0.9693 0.1529
vn -0.1098 0.5522 -0.8264
vn -0.1915 0.9626 -0.1915
vn -0.1808 0.9089 0.3757
vn -0.0388 0.1949 -0.9800
vn 0.3145 -0.5758 0.7547
vn -0.9592 -0.0010 0.2826
vn -0.1653 0.1104 -0.9800
vn -0.9132 -0.0012 0.4075
vn -0.3644 -0.9292 -0.0609
vn -0.9935 -0.0148 0.1124
vn 0.1104 -0.1653 -0.9800
vn 0.1827 -0.9748 -0.1278
vn -0.1834 0.9747 -0.1278
vn 0.9939 0.0306 0.1056
vn -0.3151 -0.5751 0.7550
vn 0.9593 0.0002 0.2822
vn 0.1949 0.0388 -0.9800
vn -0.1661 0.8352 0.5243
vn -0.1532 0.7702 0.6191
vn -0.3644 0.9292 -0.0609
vn 0.3632 -0.9297 -0.0609
vn -0.9939 -0.0306 0.1056
vn 0.1827 0.9748 -0.1278
vn -0.9592 0.0010 0.2826
vn -0.1653 -0.1104 -0.9800
vn 0.9935 0.0148 0.1124
vn 0.3145 0.5758 0.7547
vn -0.3151 0.5751 0.7550
vn 0.9939 -0.0306 0.1056
vn 0.9593 -0.0002 0.2822
vn 0.2307 -0.9730 -0.0006
vn 0.9129 -0.0004 0.4082
vn -0.2315 -0.9728 -0.0005
vn -0.2315 0.9728 -0.0005
vt 0.718750 0.000000
vt 0.750000 0.125000
vt 0.687500 0.125000
vt 0.750000 0.250000
vt 0.750000 0.375000
vt 0.687500 0.375000
vt 0.687500 0.250000
vt 0.750000 0.500000
vt 0.750000 0.625000
vt 0.687500 0.625000
vt 0.687500 0.500000
vt 0.750000 0.750000
vt 0.750000 0.875000
vt 0.687500 0.875000
vt 0.687500 0.750000
vt 0.718750 1.000000
vt 0.625000 0.875000
vt 0.625000 0.750000
vt 0.625000 0.250000
vt 0.625000 0.125000
vt 0.625000 0.500000
vt 0.625000 0.375000
vt 0.625000 0.625000
vt 0.656250 1.000000
vt 0.656250 0.000000
vt 0.562500 0.250000
vt 0.562500 0.125000
vt 0.562500 0.500000
vt 0.562500 0.375000
vt 0.562500 0.750000
vt 0.562500 0.625000
vt 0.593750 1.000000
vt 0.562500 0.875000
vt 0.593750 0.000000
vt 0.531250 1.000000
vt 0.500000 0.875000
vt 0.500000 0.375000
vt 0.500000 0.250000
vt 0.521207 0.750000
vt 0.500000 0.125000
vt 0.962742 0.625000
vt 1.000000 0.562730
vt 1.000000 0.625000
vt 0.437500 0.375000
vt 0.437500 0.250000
vt 0.978793 0.750000
vt 0.500000 0.750000
vt 0.478793 0.750000
vt 0.437500 0.125000
vt 0.500000 0.500000
vt 0.437500 0.500000
vt 1.000000 0.750000
vt 0.468750 0.000000
vt 0.375000 0.250000
vt 0.375000 0.125000
vt 0.375000 0.500000
vt 0.375000 0.375000
vt 0.437500 0.625000
vt 0.437500 0.750000
vt 0.375000 0.750000
vt 0.375000 0.625000
vt 0.437500 0.875000
vt 0.406250 1.000000
vt 0.375000 0.875000
vt 0.406250 0.000000
vt 0.312500 0.500000
vt 0.312500 0.375000
vt 0.312500 0.750000
vt 0.312500 0.625000
vt 0.343750 1.000000
vt 0.312500 0.875000
vt 0.312500 0.250000
vt 0.312500 0.125000
vt 0.281250 0.000000
vt 0.250000 0.125000
vt 0.250000 0.375000
vt 0.250000 0.250000
vt 0.250000 0.625000
vt 0.250000 0.500000
vt 0.250000 0.875000
vt 0.250000 0.750000
vt 0.281250 1.000000
vt 0.187500 0.625000
vt 0.187500 0.500000
vt 0.187500 0.875000
vt 0.187500 0.750000
vt 0.187500 0.250000
vt 0.187500 0.125000
vt 0.187500 0.375000
vt 0.218750 1.000000
vt 0.218750 0.000000
vt 0.125000 0.250000
vt 0.125000 0.125000
vt 0.125000 0.500000
vt 0.125000 0.375000
vt 0.125000 0.750000
vt 0.125000 0.625000
vt 0.156250 1.000000
vt 0.125000 0.875000
vt 0.156250 0.000000
vt 0.062500 0.750000
vt 0.062500 0.625000
vt 0.093750 1.000000
vt 0.062500 0.875000
vt 0.062500 0.375000
vt 0.062500 0.250000
vt 0.062500 0.125000
vt 0.062500 0.500000
vt 0.031250 0.000000
vt 0.000000 0.125000
vt 0.000000 0.375000
vt 0.000000 0.250000
vt 0.000000 0.875000
vt 0.021207 0.750000
vt 0.000000 0.500000
vt 1.000000 0.125000
vt 1.000000 0.250000
vt 0.937500 0.250000
vt 0.937500 0.125000
vt 1.000000 0.375000
vt 1.000000 0.500000
vt 0.937500 0.500000
vt 0.937500 0.375000
vt 1.000000 0.875000
vt 0.968750 1.000000
vt 0.937500 0.875000
vt 0.968750 0.000000
vt 0.937500 0.625000
vt 0.875000 0.250000
vt 0.875000 0.125000
vt 0.875000 0.500000
vt 0.875000 0.375000
vt 0.937500 0.750000
vt 0.875000 0.750000
vt 0.875000 0.625000
vt 0.906250 1.000000
vt 0.875000 0.875000
vt 0.843750 1.000000
vt 0.812500 0.875000
vt 0.843750 0.000000
vt 0.812500 0.125000
vt 0.812500 0.375000
vt 0.812500 0.250000
vt 0.812500 0.625000
vt 0.812500 0.500000
vt 0.812500 0.750000
vt 0.781250 0.000000
vt 0.031250 1.000000
vt 0.000000 0.750000
s 0
f 126/71/73 110/72/73 217/73/73
f 192/74/74 191/75/74 175/76/74 187/77/74
f 190/78/75 109/79/75 174/80/75 216/81/75
f 189/82/76 188/83/76 111/84/76 215/85/76
f 110/72/77 192/74/77 187/77/77 217/73/77
f 191/75/78 190/78/78 216/81/78 175/76/78
f 109/79/79 189/82/79 215/85/79 174/80/79
f 188/83/80 127/86/80 111/84/80
f 215/85/81 111/84/81 112/87/81 218/88/81
f 217/73/82 187/77/82 113/89/82 173/90/82
f 175/76/83 216/81/83 220/91/83 186/92/83
f 174/80/84 215/85/84 218/88/84 219/93/84
f 111/84/85 127/94/85 112/87/85
f 126/95/86 217/73/86 173/90/86
f 187/77/87 175/76/87 186/92/87 113/89/87
f 216/81/88 174/80/88 219/93/88 220/91/88
f 173/90/89 113/89/89 184/96/89 185/97/89
f 186/92/90 220/91/90 222/98/90 223/99/90
f 219/93/91 218/88/91 115/100/91 221/101/91
f 112/87/92 127/102/92 114/103/92
f 126/104/93 173/90/93 185/97/93
f 113/89/94 186/92/94 223/99/94 184/96/94
f 218/88/95 112/87/95 114/103/95 115/100/95
f 114/103/96 127/105/96 169/106/96
f 184/96/97 223/99/97 171/107/97 172/108/97
f 115/100/98 114/103/98 169/106/98 142/109/98
f 185/97/99 184/96/99 172/108/99 116/110/99
f 238/111/100 236/112/100 151/113/100
f 172/108/97 171/107/97 168/114/97 183/115/97
f 176/111/101 142/116/101 152/111/101
f 206/117/102 169/106/102 237/118/102
f 116/110/103 172/108/103 183/115/103 225/119/103
f 171/107/104 170/120/104 117/121/104 168/114/104
f 151/113/105 206/122/105 237/116/105 238/111/105
f 126/123/106 116/110/106 225/119/106
f 225/119/107 183/115/107 120/124/107 165/125/107
f 168/114/108 117/121/108 119/126/108 164/127/108
f 167/128/109 224/129/109 226/130/109 118/131/109
f 166/132/110 127/133/110 182/134/110
f 126/135/111 225/119/111 165/125/111
f 183/115/112 168/114/112 164/127/112 120/124/112
f 117/121/113 167/128/113 118/131/113 119/126/113
f 224/129/114 166/132/114 182/134/114 226/130/114
f 164/127/115 119/126/115 162/136/115 124/137/115
f 118/131/116 226/130/116 122/138/116 123/139/116
f 182/134/117 127/140/117 121/141/117
f 120/124/118 164/127/118 124/137/118 227/142/118
f 119/126/119 118/131/119 123/139/119 162/136/119
f 226/130/120 182/134/120 121/141/120 122/138/120
f 165/125/121 120/124/121 227/142/121 163/143/121
f 126/144/122 163/143/122 181/145/122
f 227/142/123 124/137/123 180/146/123 204/147/123
f 162/136/124 123/139/124 178/148/124 179/149/124
f 122/138/125 121/141/125 203/150/125 125/151/125
f 163/143/126 227/142/126 204/147/126 181/145/126
f 124/137/127 162/136/127 179/149/127 180/146/127
f 123/139/128 122/138/128 125/151/128 178/148/128
f 121/141/129 127/152/129 203/150/129
f 179/149/130 178/148/130 130/153/130 160/154/130
f 125/151/131 203/150/131 128/155/131 129/156/131
f 181/145/132 204/147/132 131/157/132 132/158/132
f 180/146/133 179/149/133 160/154/133 161/159/133
f 178/148/134 125/151/134 129/156/134 130/153/134
f 203/150/135 127/160/135 128/155/135
f 126/161/136 181/145/136 132/158/136
f 204/147/137 180/146/137 161/159/137 131/157/137
f 132/158/138 131/157/138 135/162/138 207/163/138
f 161/159/139 160/154/139 159/164/139 134/165/139
f 130/153/140 129/156/140 133/166/140 158/167/140
f 128/155/141 127/168/141 157/169/141
f 126/170/142 132/158/142 207/163/142
f 131/157/143 161/159/143 134/165/143 135/162/143
f 160/154/144 130/153/144 158/167/144 159/164/144
f 129/156/145 128/155/145 157/169/145 133/166/145
f 158/167/146 133/166/146 202/171/146 153/172/146
f 157/169/147 127/173/147 208/174/147
f 135/162/148 134/165/148 155/175/148 156/176/148
f 133/166/149 157/169/149 208/174/149 202/171/149
f 207/163/150 135/162/150 156/176/150 209/177/150
f 134/165/151 159/164/151 154/178/151 155/175/151
f 126/179/152 209/177/152 139/180/152
f 156/176/153 155/175/153 137/181/153 138/182/153
f 202/171/154 208/174/154 150/183/154 235/184/154
f 209/177/155 156/176/155 138/182/155 139/180/155
f 155/175/156 154/178/156 136/185/156 137/181/156
f 232/111/157 233/112/157 229/113/157
f 234/111/158 229/113/158 233/112/158
f 139/186/159 138/187/159 201/188/159 149/189/159
f 137/190/156 136/191/156 211/192/156 212/193/156
f 152/111/160 151/113/160 236/112/160
f 150/194/161 127/195/161 140/196/161
f 126/197/162 139/186/162 149/189/162
f 138/187/153 137/190/153 212/193/153 201/188/153
f 136/191/163 143/112/163 141/111/163 210/198/163 211/192/163
f 149/189/164 201/188/164 146/199/164 147/200/164
f 212/193/165 211/192/165 199/201/165 200/202/165
f 210/198/166 148/203/166 198/204/166 213/205/166
f 140/196/167 127/206/167 145/207/167
f 201/188/168 212/193/168 200/202/168 146/199/168
f 211/192/169 210/198/169 213/205/169 199/201/169
f 148/203/170 140/196/170 145/207/170 198/204/170
f 145/207/171 127/208/171 193/209/171
f 126/210/172 147/200/172 197/211/172
f 146/199/173 200/202/173 144/212/173 196/213/173
f 199/201/174 213/205/174 195/214/174 214/215/174
f 198/204/175 145/207/175 193/209/175 194/216/175
f 147/200/176 146/199/176 196/213/176 197/211/176
f 200/202/177 199/201/177 214/215/177 144/212/177
f 213/205/178 198/204/178 194/216/178 195/214/178
f 196/213/179 144/212/179 191/75/179 192/74/179
f 214/215/180 195/214/180 109/79/180 190/78/180
f 197/211/181 196/213/181 192/74/181 110/72/181
f 144/212/182 214/215/182 190/78/182 191/75/182
f 195/214/183 194/216/183 189/82/183 109/79/183
f 126/217/184 197/211/184 110/72/184
f 141/111/185 143/112/185 233/112/185 232/111/185
f 141/111/186 231/116/186 148/203/186 210/198/186
f 126/104/187 149/97/187 147/90/187
f 148/100/188 231/109/188 150/106/188 140/103/188
f 229/113/189 230/122/189 231/116/189 232/111/189
f 154/121/190 159/126/190 158/131/190 153/128/190
f 126/170/191 165/163/191 163/158/191
f 166/174/96 169/183/96 127/218/96
f 231/116/192 141/111/192 232/111/192
f 237/116/193 228/111/193 238/111/193
f 170/191/194 222/192/194 221/198/194 176/111/194 177/112/194
f 177/112/195 176/111/195 152/111/195 236/112/195
f 176/111/196 221/198/196 115/203/196 142/116/196
f 126/123/197 185/119/197 116/110/197
f 189/151/198 194/156/198 193/155/198 188/150/198
f 188/150/199 193/155/199 127/160/199
f 229/113/200 234/111/200 235/116/200 230/122/200
f 151/113/201 152/111/201 142/116/201 206/122/201
f 136/191/202 154/192/202 153/198/202 205/111/202 143/112/202
f 205/111/203 235/116/203 234/111/203
f 205/111/204 153/198/204 202/203/204 235/116/204
f 126/104/205 207/90/205 209/97/205
f 208/103/161 127/105/161 150/106/161
f 220/164/206 219/167/206 221/172/206 222/178/206
f 223/175/104 222/178/104 170/185/104 171/181/104
f 143/112/207 205/111/207 234/111/207 233/112/207
f 228/111/208 177/112/208 236/112/208 238/111/208
f 170/191/209 177/112/209 228/111/209 167/198/209 117/192/209
f 228/111/210 237/116/210 224/203/210 167/198/210
f 142/109/211 169/106/211 206/117/211
f 237/118/212 169/106/212 166/132/212 224/129/212
f 150/106/213 231/109/213 230/117/213
f 235/184/214 150/183/214 230/219/214
o Cylinder
v 0.000000 -0.145880 -0.670101
v 0.000000 -0.145880 -1.070101
v 0.103153 -0.103153 -0.670101
v 0.103153 -0.103153 -1.070101
v 0.145880 0.000000 -0.670101
v 0.145880 -0.000000 -1.070101
v 0.103153 0.103153 -0.670101
v 0.103153 0.103153 -1.070101
v 0.000000 0.145880 -0.670101
v 0.000000 0.145880 -1.070101
v -0.103153 0.103153 -0.670101
v -0.103153 0.103153 -1.070101
v -0.145880 0.000000 -0.670101
v -0.145880 -0.000000 -1.070101
v -0.103153 -0.103153 -0.670101
v -0.103153 -0.103153 -1.070101
v 0.000000 -0.200000 -0.670101
v 0.141421 -0.141421 -0.670101
v 0.141421 -0.141421 -1.070101
v 0.000000 -0.200000 -1.070101
v 0.200000 0.000000 -0.670101
v 0.200000 -0.000000 -1.070101
v 0.141421 0.141421 -0.670101
v 0.141421 0.141421 -1.070101
v 0.000000 0.200000 -0.670101
v 0.000000 0.200000 -1.070101
v -0.141421 0.141421 -0.670101
v -0.141421 0.141421 -1.070101
v -0.200000 0.000000 -0.670101
v -0.200000 -0.000000 -1.070101
v -0.141421 -0.141421 -0.670101
v -0.141421 -0.141421 -1.070101
v 0.000000 -0.145880 -0.720101
v 0.103153 -0.103153 -0.720101
v 0.103153 -0.103153 -1.020101
v 0.000000 -0.145880 -1.020101
v 0.145880 0.000000 -0.720101
v 0.145880 -0.000000 -1.020101
v 0.103153 0.103153 -0.720101
v 0.103153 0.103153 -1.020101
v 0.000000 0.145880 -0.720101
v 0.000000 0.145880 -1.020101
v -0.103153 0.103153 -0.720101
v -0.103153 0.103153 -1.020101
v -0.145880 0.000000 -0.720101
v -0.145880 -0.000000 -1.020101
v -0.103153 -0.103153 -0.720101
v -0.103153 -0.103153 -1.020101
vn 0.3827 -0.9239 -0.0000
vn 0.9239 -0.3827 -0.0000
vn 0.9239 0.3827 -0.0000
vn 0.3827 0.9239 -0.0000
vn -0.3827 0.9239 -0.0000
vn -0.9239 0.3827 -0.0000
vn -0.9239 -0.3827 -0.0000
vn -0.3827 -0.9239 -0.0000
vn -0.0000 -0.0000 1.0000
vn -0.0000 -0.0000 -1.0000
vt 1.000000 0.500000
vt 1.000000 1.000000
vt 0.875000 1.000000
vt 0.875000 0.500000
vt 0.750000 1.000000
vt 0.750000 0.500000
vt 0.625000 1.000000
vt 0.625000 0.500000
vt 0.500000 1.000000
vt 0.500000 0.500000
vt 0.375000 1.000000
vt 0.375000 0.500000
vt 0.250000 1.000000
vt 0.250000 0.500000
vt 0.074944 0.250000
vt 0.126216 0.126216
vt 0.125000 1.000000
vt 0.125000 0.500000
vt 0.000000 1.000000
vt 0.000000 0.500000
vt 0.425056 0.250000
vt 0.373784 0.373784
vt 0.873784 0.373784
vt 0.750000 0.425056
vt 0.750000 0.490000
vt 0.919706 0.419706
vt 0.250000 0.425056
vt 0.419706 0.419706
vt 0.250000 0.490000
vt 0.925056 0.250000
vt 0.990000 0.250000
vt 0.490000 0.250000
vt 0.873784 0.126216
vt 0.919706 0.080294
vt 0.373784 0.126216
vt 0.419706 0.080294
vt 0.750000 0.074944
vt 0.750000 0.010000
vt 0.250000 0.074944
vt 0.250000 0.010000
vt 0.626216 0.126216
vt 0.580294 0.080294
vt 0.080294 0.080294
vt 0.574943 0.250000
vt 0.510000 0.250000
vt 0.010000 0.250000
vt 0.626216 0.373784
vt 0.580294 0.419706
vt 0.126216 0.373784
vt 0.080294 0.419706
s 0
f 255/220/215 258/221/215 257/222/215 256/223/215
f 256/223/216 257/222/216 260/224/216 259/225/216
f 259/225/217 260/224/217 262/226/217 261/227/217
f 261/227/218 262/226/218 264/228/218 263/229/218
f 263/229/219 264/228/219 266/230/219 265/231/219
f 265/231/220 266/230/220 268/232/220 267/233/220
f 252/234/216 250/235/216 282/235/216 284/234/216
f 267/233/221 268/232/221 270/236/221 269/237/221
f 269/237/222 270/236/222 258/238/222 255/239/222
f 244/240/220 242/241/220 273/241/220 276/240/220
f 241/242/223 239/243/223 255/244/223 256/245/223
f 240/246/224 242/241/224 257/247/224 258/248/224
f 243/249/223 241/242/223 256/245/223 259/250/223
f 242/241/224 244/240/224 260/251/224 257/247/224
f 245/252/223 243/249/223 259/250/223 261/253/223
f 244/240/224 246/254/224 262/255/224 260/251/224
f 247/256/223 245/252/223 261/253/223 263/257/223
f 246/254/224 248/258/224 264/259/224 262/255/224
f 249/260/223 247/256/223 263/257/223 265/261/223
f 248/258/224 250/235/224 266/262/224 264/259/224
f 251/263/223 249/260/223 265/261/223 267/264/223
f 250/235/224 252/234/224 268/265/224 266/262/224
f 253/266/223 251/263/223 267/264/223 269/267/223
f 252/234/224 254/268/224 270/269/224 268/265/224
f 239/243/223 253/266/223 269/267/223 255/244/223
f 254/268/224 240/246/224 258/248/224 270/269/224
f 273/241/224 274/246/224 286/268/224 284/234/224 282/235/224 280/258/224 278/254/224 276/240/224
f 271/243/223 272/242/223 275/249/223 277/252/223 279/256/223 281/260/223 283/263/223 285/266/223
f 243/249/221 245/252/221 277/252/221 275/249/221
f 251/263/217 253/266/217 285/266/217 283/263/217
f 246/254/221 244/240/221 276/240/221 278/254/221
f 254/268/217 252/234/217 284/234/217 286/268/217
f 245/252/222 247/256/222 279/256/222 277/252/222
f 253/266/218 239/243/218 271/243/218 285/266/218
f 248/258/222 246/254/222 278/254/222 280/258/222
f 239/243/219 241/242/219 272/242/219 271/243/219
f 240/246/218 254/268/218 286/268/218 274/246/218
f 247/256/215 249/260/215 281/260/215 279/256/215
f 242/241/219 240/246/219 274/246/219 273/241/219
f 250/235/215 248/258/215 280/258/215 282/235/215
f 241/242/220 243/249/220 275/249/220 272/242/220
f 249/260/216 251/263/216 283/263/216 281/260/216
o Plane
v 0.555245 -0.719733 -0.069241
v 0.685084 -0.948200 -0.434543
v 0.685084 -0.965917 -0.532961
v 0.724293 -1.094239 -0.103430
v 0.428460 -0.523011 -0.511085
v 0.600561 -1.017847 -1.844509
v 0.685084 -0.983634 -0.631379
v 0.851078 -1.485850 -0.744184
v 0.645876 -0.678140 -0.076729
v 0.814923 -1.052645 -0.110918
v 0.519091 -0.481418 -0.518573
v 0.941709 -1.444257 -0.751672
v -0.555245 -0.719733 -0.069241
v -0.685084 -0.948200 -0.434543
v -0.685084 -0.965917 -0.532961
v -0.724293 -1.094239 -0.103430
v -0.428460 -0.523011 -0.511085
v -0.600561 -1.017847 -1.844509
v -0.685084 -0.983634 -0.631379
v -0.851078 -1.485850 -0.744184
v -0.645876 -0.678140 -0.076729
v -0.814923 -1.052645 -0.110918
v -0.519091 -0.481418 -0.518573
v -0.941709 -1.444257 -0.751672
v 0.555245 0.719733 -0.069241
v 0.685084 0.948200 -0.434543
v 0.685084 0.965917 -0.532961
v 0.724293 1.094239 -0.103430
v 0.428460 0.523011 -0.511085
v 0.600561 1.017847 -1.844509
v 0.685084 0.983634 -0.631379
v 0.851078 1.485850 -0.744184
v 0.645876 0.678140 -0.076729
v 0.814923 1.052645 -0.110918
v 0.519091 0.481418 -0.518573
v 0.941709 1.444257 -0.751672
v -0.555245 0.719733 -0.069241
v -0.685084 0.948200 -0.434543
v -0.685084 0.965917 -0.532961
v -0.724293 1.094239 -0.103430
v -0.428460 0.523011 -0.511085
v -0.600561 1.017847 -1.844509
v -0.685084 0.983634 -0.631379
v -0.851078 1.485850 -0.744184
v -0.645876 0.678140 -0.076729
v -0.814923 1.052645 -0.110918
v -0.519091 0.481418 -0.518573
v -0.941709 1.444257 -0.751672
vn 0.8821 0.4706 0.0192
vn 0.9530 0.3029 0.0035
vn 0.9417 0.3281 -0.0749
vn -0.9192 -0.3561 0.1681
vn -0.8405 -0.5202 0.1517
vn -0.8628 -0.5001 0.0742
vn 0.3780 -0.8770 -0.2965
vn 0.2174 -0.3070 0.9265
vn -0.1025 0.0445 -0.9937
vn -0.3884 0.7501 -0.5353
vn -0.1570 0.1668 -0.9734
vn -0.0000 0.1772 0.9842
vn -0.3516 0.8404 0.4123
vn -0.3462 0.8323 0.4328
vn 0.3381 -0.8199 -0.4621
vn -0.8821 0.4706 0.0192
vn -0.9530 0.3029 0.0035
vn -0.9417 0.3281 -0.0749
vn 0.9192 -0.3561 0.1681
vn 0.8405 -0.5202 0.1517
vn 0.8628 -0.5001 0.0742
vn -0.3780 -0.8770 -0.2965
vn -0.2174 -0.3070 0.9265
vn 0.1025 0.0445 -0.9937
vn 0.3884 0.7501 -0.5353
vn 0.1570 0.1668 -0.9734
vn 0.3516 0.8404 0.4123
vn 0.3462 0.8323 0.4328
vn -0.3381 -0.8199 -0.4620
vn 0.8821 -0.4706 0.0192
vn 0.9530 -0.3029 0.0035
vn 0.9417 -0.3281 -0.0749
vn -0.9192 0.3561 0.1681
vn -0.8405 0.5202 0.1517
vn -0.8628 0.5001 0.0742
vn 0.3780 0.8770 -0.2965
vn 0.2174 0.3070 0.9265
vn -0.1025 -0.0445 -0.9937
vn -0.3884 -0.7501 -0.5353
vn -0.1570 -0.1668 -0.9734
vn -0.0000 -0.1772 0.9842
vn -0.3516 -0.8404 0.4123
vn -0.3462 -0.8323 0.4328
vn 0.3381 0.8199 -0.4620
vn -0.8821 -0.4706 0.0192
vn -0.9530 -0.3029 0.0035
vn -0.9417 -0.3281 -0.0749
vn 0.9192 0.3561 0.1681
vn 0.8405 0.5202 0.1517
vn 0.8628 0.5001 0.0742
vn -0.3780 0.8770 -0.2965
vn -0.2174 0.3070 0.9265
vn 0.1025 -0.0445 -0.9937
vn 0.3884 -0.7501 -0.5353
vn 0.1570 -0.1668 -0.9734
vn 0.3516 -0.8404 0.4123
vn 0.3462 -0.8323 0.4328
vn -0.3381 0.8199 -0.4620
vt 0.000000 0.000000
s 0
f 290/270/225 288/270/225 291/270/225 287/270/225
f 289/270/226 290/270/226 294/270/226
f 292/270/227 293/270/227 294/270/227
f 296/270/228 295/270/228 297/270/228 288/270/228
f 289/270/229 298/270/229 296/270/229
f 292/270/230 298/270/230 293/270/230
f 290/270/231 289/270/231 296/270/231
f 289/270/232 294/270/232 298/270/232
f 290/270/233 287/270/233 295/270/233 296/270/233
f 294/270/234 290/270/234 296/270/234 298/270/234
f 294/270/235 293/270/235 298/270/235
f 291/270/236 288/270/236 297/270/236
f 288/270/237 290/270/237 296/270/237
f 292/270/238 294/270/238 298/270/238
f 287/270/239 291/270/239 297/270/239 295/270/239
f 302/270/240 299/270/240 303/270/240 300/270/240
f 301/270/241 306/270/241 302/270/241
f 304/270/242 306/270/242 305/270/242
f 308/270/243 300/270/243 309/270/243 307/270/243
f 301/270/244 308/270/244 310/270/244
f 304/270/245 305/270/245 310/270/245
f 302/270/246 308/270/246 301/270/246
f 301/270/247 310/270/247 306/270/247
f 302/270/248 308/270/248 307/270/248 299/270/248
f 306/270/249 310/270/249 308/270/249 302/270/249
f 306/270/250 310/270/250 305/270/250
f 303/270/236 309/270/236 300/270/236
f 300/270/251 308/270/251 302/270/251
f 304/270/252 310/270/252 306/270/252
f 299/270/253 307/270/253 309/270/253 303/270/253
f 314/270/254 311/270/254 315/270/254 312/270/254
f 313/270/255 318/270/255 314/270/255
f 316/270/256 318/270/256 317/270/256
f 320/270/257 312/270/257 321/270/257 319/270/257
f 313/270/258 320/270/258 322/270/258
f 316/270/259 317/270/259 322/270/259
f 314/270/260 320/270/260 313/270/260
f 313/270/261 322/270/261 318/270/261
f 314/270/262 320/270/262 319/270/262 311/270/262
f 318/270/263 322/270/263 320/270/263 314/270/263
f 318/270/264 322/270/264 317/270/264
f 315/270/265 321/270/265 312/270/265
f 312/270/266 320/270/266 314/270/266
f 316/270/267 322/270/267 318/270/267
f 311/270/268 319/270/268 321/270/268 315/270/268
f 326/270/269 324/270/269 327/270/269 323/270/269
f 325/270/270 326/270/270 330/270/270
f 328/270/271 329/270/271 330/270/271
f 332/270/272 331/270/272 333/270/272 324/270/272
f 325/270/273 334/270/273 332/270/273
f 328/270/274 334/270/274 329/270/274
f 326/270/275 325/270/275 332/270/275
f 325/270/276 330/270/276 334/270/276
f 326/270/277 323/270/277 331/270/277 332/270/277
f 330/270/278 326/270/278 332/270/278 334/270/278
f 330/270/279 329/270/279 334/270/279
f 327/270/265 324/270/265 333/270/265
f 324/270/280 326/270/280 332/270/280
f 328/270/281 330/270/281 334/270/281
f 323/270/282 327/270/282 333/270/282 331/270/282
